<svg xmlns="http://www.w3.org/2000/svg" width="512" height="512" viewBox="0 0 512 512"><path d="M361.971 239.062c36.665-26.262 51.562-119.057-67.002-131.281l-.001-57.781h-48.018l.001 56.086h-20.357v-56.086h-47.985l-.015 56.086h-76.631l.011 51.949 35.606-.021c11.648.003 13.862 5.488 13.862 12.654v164.086c0 9.123-4.417 13.588-14.278 13.588h-26.879l-9.207 55.616h77.523l.017 58.042h47.976v-58.042h20.36l-.018 58.042h48.021v-58.231c145.26-9.969 137.494-140.338 67.014-164.707zm-135.378-12.347v-66.021c34.72 0 79.767-1.01 79.772 33.036-.009 32.749-46.269 32.985-79.772 32.985zm0 48.203c38.505-.763 97.454-1.812 97.451 36.888.016 37.604-60.552 36.567-97.451 36.567v-73.455z"/></svg>