<svg xmlns="http://www.w3.org/2000/svg" width="512" height="512" viewBox="0 0 512 512"><path d="M231 462h-162.875v-204.331h162.875v204.331zm0-301.331h-181v67h181v-67zm50 301.331h162.875v-204.331h-162.875v204.331zm0-301.331v67h181v-67h-181zm16.884-45h37.032c27.667 0 26.667-35.669 5.426-35.669-16.384 0-29.071 15.335-42.458 35.669zm51.458-65.669c63.574 0 62.908 90.669-.426 90.669h-91.166c12.673-27.625 38.166-90.669 91.592-90.669zm-174.184 30c-21.241 0-22.241 35.669 5.426 35.669h37.032c-13.387-20.334-26.074-35.669-42.458-35.669zm-9-30c53.426 0 78.919 63.044 91.592 90.669h-91.166c-63.334 0-64-90.669-.426-90.669z"/></svg>