<svg xmlns="http://www.w3.org/2000/svg" width="512" height="512" viewBox="0 0 512 512"><path d="M461.633 250.645l.367-3.819c-22.896-2.221-45.667-2.419-67.79-.73 3.557-11.347 5.43-24.164 5.295-38.739-.292-30.965-10.616-55.081-26.843-75.096 3.116-18.852.769-37.702-5.111-56.561-23.187 1.898-44.053 9.493-62.634 22.686-34.725-7.044-69.447-7.493-104.172 0-21.673-14.627-42.956-21.802-63.909-22.686-6.21 20.765-7.169 41.233-1.917 61.357-18.28 19.397-25.268 42.944-24.925 69.019.196 14.927 2.496 28.209 6.738 39.952-21.796-1.599-44.201-1.386-66.732.798l.367 3.819c22.947-2.228 45.76-2.411 67.919-.678.814 1.974 1.633 3.939 2.567 5.815-24.009-.633-45.618 1.453-65.854 6.43l.914 3.723c20.538-5.048 42.54-7.081 67.107-6.254 16.246 28.864 47.52 45.824 93.063 51.205-10.581 8.594-16.269 18.731-17.735 30.201h-24.121c-32.394 0-41.226-41.304-74.779-37.229 32.552 16.142 26.052 67.741 78.139 67.741h21.881v47.296c.234 7.643-3.093 12.754-8.469 16.297 18.654 1.884 32.674-7.43 32.674-18.854v-62.518l5.833-6v72.992c.245 7.265-3.284 11.392-7.031 15.339 16.434.654 31.892-2.629 32.592-16.615v-69.857s5.756-3.599 5.756 0v66.58c.169 11.8 10.361 21.367 31.953 19.893-5.776-4.65-7.549-9.35-7.549-16.15v-72.181s5.95-.306 5.95 6v60.881c0 13.55 16.267 19.14 34.829 18.615-6.081-4.558-10.196-9.991-10.223-17.256v-73.217c-.629-10.762-5.003-20.906-13.582-30.358 41.63-6.392 71.637-23.011 86.578-52.796 24.647-.847 46.715 1.183 67.307 6.246l.914-3.723c-20.394-5.014-42.181-7.096-66.416-6.415.839-1.891 1.67-3.789 2.389-5.785 22.39-1.798 45.458-1.622 68.66.632zm-347.633 59.378c-1.023 0-1.853-.588-1.853-1.313 0-.728.83-1.315 1.853-1.315 1.024 0 1.854.588 1.854 1.315 0 .726-.83 1.313-1.854 1.313zm5.833 3.98c-1.137 0-2.06-.653-2.06-1.46s.923-1.462 2.06-1.462 2.059.655 2.059 1.462-.922 1.46-2.059 1.46zm5.917 5.169c-1.333 0-2.415-.766-2.415-1.712s1.082-1.714 2.415-1.714 2.416.768 2.416 1.714-1.083 1.712-2.416 1.712zm5.75 6.207c-1.56 0-2.825-.896-2.825-2.003s1.265-2.005 2.825-2.005 2.825.898 2.825 2.005-1.265 2.003-2.825 2.003zm6.333 7.015c-1.733 0-3.139-.996-3.139-2.226s1.406-2.228 3.139-2.228 3.139.998 3.139 2.228-1.406 2.226-3.139 2.226zm7.334 7.123c-1.926 0-3.488-1.107-3.488-2.474s1.562-2.476 3.488-2.476c1.925 0 3.487 1.109 3.487 2.476s-1.562 2.474-3.487 2.474zm9.916 6.774c-2.14 0-3.875-1.231-3.875-2.749 0-1.519 1.735-2.751 3.875-2.751s3.875 1.232 3.875 2.751c0 1.518-1.735 2.749-3.875 2.749zm12.292 3.625c-2.14 0-3.875-1.231-3.875-2.749 0-1.519 1.735-2.751 3.875-2.751s3.875 1.232 3.875 2.751c0 1.518-1.735 2.749-3.875 2.749zm12.958.417c-2.14 0-3.875-1.231-3.875-2.749 0-1.519 1.735-2.751 3.875-2.751s3.875 1.232 3.875 2.751c0 1.518-1.735 2.749-3.875 2.749zm12.792.25c-2.14 0-3.875-1.231-3.875-2.749 0-1.519 1.735-2.751 3.875-2.751s3.875 1.232 3.875 2.751c0 1.518-1.735 2.749-3.875 2.749z"/></svg>