<svg xmlns="http://www.w3.org/2000/svg" width="512" height="512" viewBox="0 0 512 512"><path d="M259.462 462c-24.864 0-45.03-20.166-45.03-45.039 0-24.86 20.166-45.02 45.03-45.02 24.87 0 45.029 20.159 45.029 45.02 0 24.873-20.159 45.039-45.029 45.039zm35.403-133.1v8.1h-74.229v-8.1c0-22.922 3.344-52.326 29.956-77.89 26.613-25.567 59.87-46.687 59.87-78.625 0-35.309-24.503-53.985-55.399-53.985-51.483 0-54.846 53.393-56.115 65.149h-72.198c1.923-55.675 25.456-133.549 128.744-133.549 89.513 0 129.756 59.949 129.756 116.166 0 89.48-90.385 105.023-90.385 162.734z"/></svg>