<svg xmlns="http://www.w3.org/2000/svg" width="512" height="512" viewBox="0 0 512 512"><path stroke="#000" stroke-miterlimit="10" d="M286.529 325.486l-45.314 45.314h-43.873l.002 43.872-45.746-.001v41.345l-100.004-.001 150.078-150.076c-4.578-4.686-10.061-11.391-13.691-17.423l-137.981 137.982v-40.939l145.736-145.736c16.438 39.173 48.977 70.882 90.793 85.663zm139.117-233.147c48.473 48.473 48.471 127.064-.002 175.535-48.477 48.476-127.061 48.476-175.537.001-48.473-48.472-48.475-127.062 0-175.537 48.473-48.473 127.065-48.473 175.539.001zm-24.916 24.826c-12.023-12.021-31.516-12.021-43.537 0-12.021 12.022-12.021 31.517 0 43.538s31.514 12.021 43.537-.001c12.024-12.022 12.02-31.514 0-43.537z"/></svg>