<svg xmlns="http://www.w3.org/2000/svg" width="512" height="512" viewBox="0 0 512 512"><path d="M460.355 421.59l-106.511-106.512c20.041-27.553 31.885-61.437 31.885-98.037 0-92.107-74.936-167.041-167.043-167.041-92.106 0-167.041 74.934-167.041 167.041 0 92.106 74.936 167.041 167.041 167.041 34.912 0 67.352-10.773 94.184-29.158l107.075 107.076 40.41-40.41zm-359.724-204.549c0-65.096 52.959-118.056 118.055-118.056 65.098 0 118.057 52.959 118.057 118.056 0 65.096-52.959 118.056-118.057 118.056-65.096 0-118.055-52.96-118.055-118.056z"/></svg>