<svg xmlns="http://www.w3.org/2000/svg" height="512" width="512" viewBox="0 0 512 512"><path d="M420.201 132.286c6.53 12.283 9.768 27.518 9.768 45.784 0 41.516-17.496 74.984-52.434 100.408-34.967 25.448-83.798 38.139-146.547 38.139h-14.688c-11.052 0-22.08 8.681-24.571 19.263l-17.639 75.19c-2.453 10.63-13.51 19.311-24.543 19.311h-32.121l-2.874 12.283c-2.496 10.654 4.503 19.335 15.536 19.335h51.481c11.042 0 22.099-8.681 24.543-19.311l17.649-75.19c2.491-10.583 13.519-19.263 24.571-19.263h14.688c62.748 0 111.579-12.686 146.537-38.139 34.948-25.429 52.443-58.896 52.443-100.412 0-18.262-3.248-33.496-9.768-45.784-6.501-12.202-15.953-22.176-28.275-29.784-1.322-.79-2.386-1.083-3.756-1.83zm-278.137 247.17l17.644-75.194c2.491-10.583 13.51-19.263 24.562-19.263h14.688c62.758 0 111.589-12.686 146.547-38.139 34.948-25.424 52.434-58.892 52.434-100.408 0-18.262-3.238-33.496-9.768-45.784-6.491-12.202-15.953-22.176-28.265-29.774-12.623-7.718-27.451-13.079-44.62-16.216-17.227-3.114-37.362-4.676-60.511-4.676h-107.201c-11.071 0-22.099 8.628-24.61 19.263l-72.459 310.181c-2.496 10.64 4.498 19.311 15.531 19.311h51.481c11.033 0 22.095-8.676 24.547-19.302zm42.038-179.981l15.469-65.843c2.506-10.602 13.558-19.273 24.552-19.273h16.854c19.642 0 34.526 3.296 44.51 9.878 9.974 6.52 14.98 16.552 14.98 30.167 0 20.595-7.785 36.491-23.235 47.643-15.469 11.134-36.979 16.767-64.77 16.767h-12.753c-11.052 0-18.042-8.719-15.608-19.34z"/></svg>