<svg xmlns="http://www.w3.org/2000/svg" width="512" height="512" viewBox="0 0 512 512"><path d="M373.223 142.573l-37.252 37.253c-20.225-20.224-48.162-32.731-79.021-32.731-61.719 0-111.752 50.056-111.752 111.776h43.412l-69.342 69.315-69.268-69.315h42.514c0-90.816 73.621-164.46 164.436-164.46 45.407 0 86.517 18.405 116.273 48.162zm88.777 110.556l-69.268-69.316-69.342 69.316h43.412c0 61.72-50.033 111.776-111.752 111.776-30.859 0-58.797-12.508-79.021-32.731l-37.252 37.253c29.758 29.757 70.867 48.162 116.273 48.162 90.814 0 164.436-73.644 164.436-164.459h42.514z"/></svg>