<svg xmlns="http://www.w3.org/2000/svg" width="512" height="512" viewBox="0 0 512 512"><path d="M75.617 37.55l-28.257 73.834v310.373h105.281v58.793h57.426l53.324-58.793h94.343l113.485-113.485v-270.266l-395.602-.456zm355.95 258.417l-61.528 58.793h-110.75l-57.426 64.262v-64.262h-87.506v-278.926h317.21v220.133z"/><polygon points="267.493,182.482 267.493,99.078 159.477,99.078 140.335,146.933 140.335,222.134 159.477,182.482"/><polygon points="267.493,207.094 159.478,207.094 140.336,244.01 140.336,321.945 238.78,321.945 267.493,283.661"/><polygon points="292.104,283.661 260.656,321.945 363.202,321.945 400.119,283.661 400.119,207.094 292.104,207.094"/><rect x="292.104" y="99.078" width="108.015" height="83.404"/></svg>