<svg xmlns="http://www.w3.org/2000/svg" width="512" height="512" viewBox="0 0 512 512"><path d="M424.562 78.022v40.032h-337.124v-40.032h94.938c15.464 0 28-12.546 28-28.022h91.25c0 15.477 12.536 28.022 28 28.022h94.936zm-18.228 70.057v313.921h-300.668v-313.921h300.668zm-209.001 62.383c0-8.291-6.716-15.012-15-15.012s-15 6.721-15 15.012v190.153c0 8.291 6.716 15.012 15 15.012s15-6.721 15-15.012v-190.153zm73.667 0c0-8.291-6.716-15.012-15-15.012s-15 6.721-15 15.012v190.153c0 8.291 6.716 15.012 15 15.012s15-6.721 15-15.012v-190.153zm73.667 0c0-8.291-6.716-15.012-15-15.012s-15 6.721-15 15.012v190.153c0 8.291 6.716 15.012 15 15.012s15-6.721 15-15.012v-190.153z"/></svg>