<svg xmlns="http://www.w3.org/2000/svg" width="512" height="512" viewBox="0 0 512 512"><path d="M462 128.223c-15.158 6.724-31.449 11.269-48.547 13.31 17.449-10.461 30.854-27.025 37.164-46.764-16.333 9.687-34.422 16.721-53.676 20.511-15.418-16.428-37.386-26.691-61.698-26.691-54.56 0-94.668 50.916-82.337 103.787-70.25-3.524-132.534-37.177-174.223-88.314-22.142 37.983-11.485 87.691 26.158 112.85-13.854-.438-26.891-4.241-38.285-10.574-.917 39.162 27.146 75.781 67.795 83.949-11.896 3.237-24.926 3.978-38.17 1.447 10.754 33.58 41.972 58.018 78.96 58.699-35.537 27.849-80.295 40.288-125.141 35.003 37.406 23.982 81.837 37.977 129.571 37.977 156.932 0 245.595-132.551 240.251-251.435 16.517-11.917 30.846-26.804 42.178-43.755z"/></svg>